<svg width="201" height="201" viewBox="0 0 201 201" fill="none" xmlns="http://www.w3.org/2000/svg">
<path d="M189.288 54.5638C214.697 103.689 195.471 164.112 146.346 189.521C97.2203 214.93 36.7978 195.705 11.3885 146.579C-14.0208 97.4535 5.205 37.0311 54.3306 11.6218C103.456 -13.7876 163.879 5.43827 189.288 54.5638Z" fill="#C4C3C3" fill-opacity="0.33"/>
<path d="M183.584 56.6157C177.898 45.6217 170.102 35.8553 160.641 27.8742C151.18 19.8932 140.24 13.8538 128.445 10.1007C116.65 6.34772 104.231 4.95462 91.8982 6.001C79.5649 7.04738 67.5585 10.5127 56.5644 16.1992C45.5704 21.8857 35.804 29.6819 27.823 39.1427C19.8419 48.6036 13.8025 59.5438 10.0495 71.3387C6.29646 83.1336 4.90337 95.5522 5.94975 107.885C6.99612 120.219 10.4615 132.225 16.1479 143.219L183.584 56.6157Z" fill="#B7E9E6" fill-opacity="0.33"/>
<path d="M16.9279 144.727C22.6143 155.721 30.4106 165.487 39.8714 173.468C49.3323 181.449 60.2724 187.489 72.0673 191.242C83.8622 194.995 96.2809 196.388 108.614 195.342C120.947 194.295 132.954 190.83 143.948 185.143C154.942 179.457 164.708 171.661 172.689 162.2C180.67 152.739 186.71 141.799 190.463 130.004C194.216 118.209 195.609 105.79 194.563 93.4571C193.516 81.1238 190.051 69.1174 184.364 58.1234L16.9279 144.727Z" fill="white" fill-opacity="0.33"/>
</svg>
