<svg width="201" height="201" viewBox="0 0 201 201" fill="none" xmlns="http://www.w3.org/2000/svg">
<path d="M189.6 54.4349C215.01 103.56 195.784 163.983 146.658 189.392C97.5328 214.802 37.1103 195.576 11.701 146.45C-13.7083 97.3246 5.5175 36.9022 54.6431 11.4929C103.769 -13.9165 164.191 5.30936 189.6 54.4349Z" fill="#C4C3C3" fill-opacity="0.33"/>
<path d="M183.897 56.4868C178.21 45.4927 170.414 35.7264 160.953 27.7453C151.493 19.7643 140.552 13.7248 128.757 9.97183C116.963 6.21881 104.544 4.82572 92.2107 5.87209C79.8774 6.91847 67.871 10.3838 56.8769 16.0703C45.8829 21.7568 36.1165 29.553 28.1355 39.0138C20.1544 48.4747 14.115 59.4149 10.362 71.2098C6.60896 83.0047 5.21587 95.4233 6.26225 107.757C7.30862 120.09 10.774 132.096 16.4604 143.09L183.897 56.4868Z" fill="#E2EBC5" fill-opacity="0.33"/>
<path d="M17.2404 144.598C22.9268 155.592 30.7231 165.358 40.1839 173.339C49.6448 181.32 60.5849 187.36 72.3798 191.113C84.1747 194.866 96.5934 196.259 108.927 195.213C121.26 194.166 133.266 190.701 144.26 185.014C155.254 179.328 165.021 171.532 173.002 162.071C180.983 152.61 187.022 141.67 190.775 129.875C194.528 118.08 195.921 105.661 194.875 93.3282C193.829 80.9949 190.363 68.9885 184.677 57.9944L17.2404 144.598Z" fill="white" fill-opacity="0.33"/>
</svg>
