<svg width="80" height="84" viewBox="0 0 80 84" fill="none" xmlns="http://www.w3.org/2000/svg">
<mask id="mask0_90_31" style="mask-type:alpha" maskUnits="userSpaceOnUse" x="10" y="10" width="57" height="56">
<circle cx="38.7209" cy="37.7762" r="27.7672" transform="rotate(-25 38.7209 37.7762)" fill="#D9D9D9"/>
</mask>
<g mask="url(#mask0_90_31)">
<rect x="-12.0493" y="16.0374" width="77.5907" height="40.9616" transform="rotate(-25 -12.0493 16.0374)" fill="#C4C3C3"/>
</g>
<mask id="mask1_90_31" style="mask-type:alpha" maskUnits="userSpaceOnUse" x="13" y="18" width="56" height="57">
<circle cx="40.8081" cy="46.7521" r="27.7672" transform="rotate(155 40.8081 46.7521)" fill="#FB9EA4"/>
</mask>
<g mask="url(#mask1_90_31)">
<rect x="13.0696" y="49.2705" width="77.5907" height="40.9616" transform="rotate(-0.580062 13.0696 49.2705)" fill="white"/>
</g>
<path d="M18.4594 34.1822L17.6166 34.5752L16.8051 32.8351L17.648 32.4421L18.4594 34.1822ZM19.6965 33.6053L18.8537 33.9984L18.0423 32.2583L18.8851 31.8652L19.6965 33.6053ZM15.3663 35.3929L15.7086 36.127L19.1072 34.5421L21.9409 40.6189C23.1263 43.1611 22.7599 44.2919 20.476 45.3569L19.7914 43.8887C21.1101 43.2738 21.1383 42.731 20.6121 41.6027L18.3237 36.695L16.3932 37.5952L17.192 39.3081C18.5423 42.2038 18.7691 44.2165 18.2873 46.3776L16.7052 46.0726C17.0483 44.0755 16.9219 42.5621 15.7238 39.9927L14.925 38.2798L13.5248 38.9328L12.8401 37.4646L14.2404 36.8116L13.8981 36.0775L15.3663 35.3929ZM28.2723 32.0393L29.1028 33.8202L31.2643 32.8123L31.9489 34.2805L29.7738 35.2948C30.8985 38.097 30.4195 39.661 29.1939 41.2917L27.9609 40.2447C28.998 38.8839 29.0798 37.8527 28.3056 35.9794L25.7634 37.1649L25.0787 35.6967L27.6345 34.5049L27.0006 33.1454C26.5012 33.4941 25.9356 33.8075 25.2695 34.1181L24.4489 32.7133C26.1166 31.8529 27.2949 30.9725 27.9858 29.5083L29.3584 30.3578C29.0655 31.0074 28.7083 31.5547 28.2723 32.0393ZM35.8385 27.634L37.3067 26.9493L37.9978 28.1828L41.1973 26.0289L41.7488 30.1576L40.1394 30.3619L39.9269 28.806L38.7713 29.5931L41.9358 35.3501L40.4675 36.0347L37.4244 30.5025L36.1047 31.3992L35.2361 30.0334L36.631 29.085L35.8385 27.634Z" fill="#615858"/>
<path d="M41.0982 53.05V51.88H42.9132V51.16H41.0982V49.99H44.5332V53.05H42.7182C42.7182 53.365 42.7782 53.77 43.2432 53.77H44.5332V54.94H43.2432C41.6082 54.94 41.0982 54.175 41.0982 53.05ZM46.8132 51.16H44.9832V49.99H48.4332V53.05H46.6032C46.6032 53.365 46.6782 53.77 47.1432 53.77H48.4332V54.94H47.1432C45.4932 54.94 44.9832 54.175 44.9832 53.05V51.88H46.8132V51.16ZM38.3832 51.655H40.0482L40.4082 53.995H38.7432L38.3832 51.655ZM45.9132 55.24H47.5332V55.69H48.4332V56.86H47.5332V57.385H48.4332V58.705H47.3982C47.6682 58.9 47.9982 59.035 48.4332 59.125L48.0732 60.37H48.4332V61.99H44.6682C42.6282 61.99 41.4882 61.63 40.3782 60.865C40.2732 61.24 40.1382 61.615 39.9582 61.99L38.3832 61.585C39.0132 60.13 39.0282 58.705 39.0282 56.845H38.3832V55.21H40.6482V56.845C40.6482 57.64 40.6482 58.345 40.6332 58.99C40.9032 59.2 41.1582 59.38 41.4132 59.545L41.2932 59.125C41.7132 59.035 42.0582 58.9 42.3282 58.705H41.2482V57.385H42.1482V56.86H41.2482V55.69H42.1482V55.24H43.7682V55.69H45.9132V55.24ZM45.9132 56.86H43.7682V57.385H45.9132V56.86ZM44.6682 60.37H47.9982C46.7532 60.145 46.1682 59.545 45.7632 58.705H43.9632C43.6632 59.32 43.2732 59.8 42.5982 60.1C43.1532 60.28 43.8132 60.37 44.6682 60.37ZM55.1203 61.99L53.5753 61.495C54.3103 58.285 54.1903 54.73 54.1903 49.99H60.4303V56.8H59.3203C59.5603 59.665 60.4303 61.285 60.4303 61.285L58.9753 61.99C58.9753 61.99 57.9253 60.235 57.6853 56.8H55.7503C55.6603 58.75 55.4953 60.49 55.1203 61.99ZM51.5203 59.35V58.375C51.1753 58.405 50.8003 58.435 50.3803 58.435V56.815C50.7853 56.815 51.1603 56.785 51.5203 56.725V53.23H50.3803V51.61H51.5203V50.5H53.1403V51.61H53.7403V53.23H53.1403V56.32C53.5153 56.185 53.7403 56.08 53.7403 56.08V57.7C53.7403 57.7 53.5453 57.835 53.1403 58V59.35C53.1403 61.225 52.3303 61.99 50.6803 61.99V60.37C51.2353 60.37 51.5203 60.145 51.5203 59.35ZM58.8103 51.61H55.8103C55.8103 52.855 55.8103 54.055 55.7953 55.18H58.8103V51.61Z" fill="#615858"/>
</svg>
