<svg width="56" height="56" viewBox="0 0 56 56" fill="none" xmlns="http://www.w3.org/2000/svg">
<mask id="mask0_91_34" style="mask-type:alpha" maskUnits="userSpaceOnUse" x="0" y="0" width="56" height="56">
<circle cx="27.7672" cy="27.7672" r="27.7672" fill="#D9D9D9"/>
</mask>
<g mask="url(#mask0_91_34)">
<rect x="-9.05884" y="-13.3911" width="77.5907" height="40.9616" fill="#C4C3C3"/>
</g>
<mask id="mask1_91_34" style="mask-type:alpha" maskUnits="userSpaceOnUse" x="0" y="0" width="56" height="56">
<circle cx="27.7672" cy="27.7674" r="27.7672" transform="rotate(-180 27.7672 27.7674)" fill="#FB9EA4"/>
</mask>
<g mask="url(#mask1_91_34)">
<rect x="64.5933" y="68.9258" width="77.5907" height="40.9616" transform="rotate(-180 64.5933 68.9258)" fill="white"/>
</g>
<path d="M11.2332 16.2246H10.3032V14.3046H11.2332V16.2246ZM12.5982 16.2246H11.6682V14.3046H12.5982V16.2246ZM7.91821 16.0146V16.8246H11.6682V23.5296C11.6682 26.3346 10.8582 27.2046 8.33821 27.2046V25.5846C9.79321 25.5846 10.0482 25.1046 10.0482 23.8596V18.4446H7.91821V20.3346C7.91821 23.5296 7.27321 25.4496 5.92321 27.2046L4.61821 26.2596C5.77321 24.5946 6.29821 23.1696 6.29821 20.3346V18.4446H4.75321V16.8246H6.29821V16.0146H7.91821ZM21.0323 18.4296V20.3946H23.4173V22.0146H21.0173C20.8523 25.0296 19.7573 26.2446 17.9573 27.2046L17.2823 25.7346C18.7973 24.9396 19.3073 24.0396 19.3973 22.0146H16.5923V20.3946H19.4123V18.8946C18.8123 18.9996 18.1673 19.0446 17.4323 19.0446L17.2823 17.4246C19.1573 17.3496 20.5973 17.0496 21.8423 16.0146L22.7273 17.3646C22.1873 17.8296 21.6323 18.1746 21.0323 18.4296ZM29.7514 17.6346H31.3714L31.4764 19.0446L35.2864 18.4446L34.0414 22.4196L32.4964 21.9246L32.9614 20.4246L31.5814 20.6496L32.0164 27.2046H30.3964L29.9764 20.9046L28.4014 21.1596L28.1914 19.5546L29.8564 19.2846L29.7514 17.6346ZM29.3914 33.2646V32.0946H31.2064V31.3746H29.3914V30.2046H32.8264V33.2646H31.0114C31.0114 33.5796 31.0714 33.9846 31.5364 33.9846H32.8264V35.1546H31.5364C29.9014 35.1546 29.3914 34.3896 29.3914 33.2646ZM35.1064 31.3746H33.2764V30.2046H36.7264V33.2646H34.8964C34.8964 33.5796 34.9714 33.9846 35.4364 33.9846H36.7264V35.1546H35.4364C33.7864 35.1546 33.2764 34.3896 33.2764 33.2646V32.0946H35.1064V31.3746ZM26.6764 31.8696H28.3414L28.7014 34.2096H27.0364L26.6764 31.8696ZM34.2064 35.4546H35.8264V35.9046H36.7264V37.0746H35.8264V37.5996H36.7264V38.9196H35.6914C35.9614 39.1146 36.2914 39.2496 36.7264 39.3396L36.3664 40.5846H36.7264V42.2046H32.9614C30.9214 42.2046 29.7814 41.8446 28.6714 41.0796C28.5664 41.4546 28.4314 41.8296 28.2514 42.2046L26.6764 41.7996C27.3064 40.3446 27.3214 38.9196 27.3214 37.0596H26.6764V35.4246H28.9414V37.0596C28.9414 37.8546 28.9414 38.5596 28.9264 39.2046C29.1964 39.4146 29.4514 39.5946 29.7064 39.7596L29.5864 39.3396C30.0064 39.2496 30.3514 39.1146 30.6214 38.9196H29.5414V37.5996H30.4414V37.0746H29.5414V35.9046H30.4414V35.4546H32.0614V35.9046H34.2064V35.4546ZM34.2064 37.0746H32.0614V37.5996H34.2064V37.0746ZM32.9614 40.5846H36.2914C35.0464 40.3596 34.4614 39.7596 34.0564 38.9196H32.2564C31.9564 39.5346 31.5664 40.0146 30.8914 40.3146C31.4464 40.4946 32.1064 40.5846 32.9614 40.5846ZM43.4135 42.2046L41.8685 41.7096C42.6035 38.4996 42.4835 34.9446 42.4835 30.2046H48.7235V37.0146H47.6135C47.8535 39.8796 48.7235 41.4996 48.7235 41.4996L47.2685 42.2046C47.2685 42.2046 46.2185 40.4496 45.9785 37.0146H44.0435C43.9535 38.9646 43.7885 40.7046 43.4135 42.2046ZM39.8135 39.5646V38.5896C39.4685 38.6196 39.0935 38.6496 38.6735 38.6496V37.0296C39.0785 37.0296 39.4535 36.9996 39.8135 36.9396V33.4446H38.6735V31.8246H39.8135V30.7146H41.4335V31.8246H42.0335V33.4446H41.4335V36.5346C41.8085 36.3996 42.0335 36.2946 42.0335 36.2946V37.9146C42.0335 37.9146 41.8385 38.0496 41.4335 38.2146V39.5646C41.4335 41.4396 40.6235 42.2046 38.9735 42.2046V40.5846C39.5285 40.5846 39.8135 40.3596 39.8135 39.5646ZM47.1035 31.8246H44.1035C44.1035 33.0696 44.1035 34.2696 44.0885 35.3946H47.1035V31.8246Z" fill="#615858"/>
</svg>
