<svg width="202" height="201" viewBox="0 0 202 201" fill="none" xmlns="http://www.w3.org/2000/svg">
<path d="M189.992 54.672C215.401 103.798 196.175 164.22 147.05 189.629C97.9244 215.039 37.5019 195.813 12.0926 146.687C-13.3167 97.5617 5.9091 37.1392 55.0347 11.7299C104.16 -13.6794 164.583 5.54642 189.992 54.672Z" fill="#C4C3C3" fill-opacity="0.33"/>
<path d="M184.289 56.7238C178.602 45.7298 170.806 35.9635 161.345 27.9824C151.884 20.0014 140.944 13.9619 129.149 10.2089C117.354 6.45587 104.936 5.06278 92.6023 6.10916C80.269 7.15553 68.2626 10.6209 57.2685 16.3074C46.2745 21.9938 36.5081 29.79 28.5271 39.2509C20.546 48.7117 14.5066 59.6519 10.7536 71.4468C7.00056 83.2417 5.60747 95.6603 6.65385 107.994C7.70023 120.327 11.1656 132.333 16.852 143.327L184.289 56.7238Z" fill="#FB9EA4" fill-opacity="0.33"/>
<path d="M17.632 144.835C23.3184 155.829 31.1147 165.595 40.5755 173.576C50.0364 181.558 60.9766 187.597 72.7714 191.35C84.5663 195.103 96.985 196.496 109.318 195.45C121.652 194.403 133.658 190.938 144.652 185.252C155.646 179.565 165.412 171.769 173.393 162.308C181.374 152.847 187.414 141.907 191.167 130.112C194.92 118.317 196.313 105.899 195.267 93.5652C194.22 81.232 190.755 69.2255 185.068 58.2315L17.632 144.835Z" fill="white" fill-opacity="0.33"/>
</svg>
