<svg width="202" height="201" viewBox="0 0 202 201" fill="none" xmlns="http://www.w3.org/2000/svg">
<path d="M190.024 54.7279C215.434 103.853 196.208 164.276 147.082 189.685C97.9566 215.095 37.5341 195.869 12.1248 146.743C-13.2845 97.6176 5.94133 37.1951 55.0669 11.7858C104.192 -13.6235 164.615 5.60233 190.024 54.7279Z" fill="#C4C3C3" fill-opacity="0.33"/>
<path d="M184.321 56.7798C178.634 45.7857 170.838 36.0194 161.377 28.0383C151.916 20.0573 140.976 14.0178 129.181 10.2648C117.386 6.51178 104.968 5.11869 92.6345 6.16506C80.3012 7.21144 68.2948 10.6768 57.3008 16.3633C46.3067 22.0497 36.5404 29.846 28.5593 39.3068C20.5783 48.7676 14.5388 59.7078 10.7858 71.5027C7.03279 83.2976 5.6397 95.7163 6.68608 108.05C7.73245 120.383 11.1978 132.389 16.8843 143.383L184.321 56.7798Z" fill="#FFEAA0" fill-opacity="0.33"/>
<path d="M17.6642 144.891C23.3507 155.885 31.1469 165.651 40.6077 173.632C50.0686 181.613 61.0088 187.653 72.8037 191.406C84.5986 195.159 97.0172 196.552 109.35 195.506C121.684 194.459 133.69 190.994 144.684 185.307C155.678 179.621 165.445 171.825 173.426 162.364C181.407 152.903 187.446 141.963 191.199 130.168C194.952 118.373 196.345 105.954 195.299 93.6211C194.253 81.2879 190.787 69.2815 185.101 58.2874L17.6642 144.891Z" fill="white" fill-opacity="0.33"/>
</svg>
