<svg width="74" height="40" viewBox="0 0 74 40" fill="none" xmlns="http://www.w3.org/2000/svg">
<rect width="74" height="40" fill="#615858"/>
<rect x="3" y="3" width="68" height="34" fill="white"/>
<path d="M12.984 21.28V18.688H15.456L11.4 10.432H14.28L17.544 17.056L20.808 10.432H23.688L19.632 18.688H22.104V21.28H18.84V23.536H22.104V26.128H18.84V29.584H16.248V26.128H12.984V23.536H16.248V21.28H12.984ZM31.0539 29.584H28.4619V12.976H27.0459V10.384H31.0539V29.584ZM39.9201 10.144C42.6561 10.144 45.1521 11.608 45.1521 15.136V24.808C45.1521 28.336 42.6561 29.824 39.9201 29.824C37.1601 29.824 34.6641 28.336 34.6641 24.808V15.136C34.6641 11.608 37.1601 10.144 39.9201 10.144ZM42.5601 24.808V15.136C42.5601 13.456 41.7201 12.736 39.9201 12.736C38.1201 12.736 37.2561 13.456 37.2561 15.136V24.808C37.2561 26.488 38.1201 27.232 39.9201 27.232C41.7201 27.232 42.5601 26.488 42.5601 24.808ZM54.0013 10.144C56.7373 10.144 59.2333 11.608 59.2333 15.136V24.808C59.2333 28.336 56.7373 29.824 54.0013 29.824C51.2413 29.824 48.7453 28.336 48.7453 24.808V15.136C48.7453 11.608 51.2413 10.144 54.0013 10.144ZM56.6413 24.808V15.136C56.6413 13.456 55.8013 12.736 54.0013 12.736C52.2013 12.736 51.3373 13.456 51.3373 15.136V24.808C51.3373 26.488 52.2013 27.232 54.0013 27.232C55.8013 27.232 56.6413 26.488 56.6413 24.808Z" fill="#FFEAA0"/>
</svg>
