<svg width="74" height="40" viewBox="0 0 74 40" fill="none" xmlns="http://www.w3.org/2000/svg">
<path d="M0 0H74V40H0V0Z" fill="#615858"/>
<path d="M3 3H71V37H3V3Z" fill="white"/>
<path d="M11.8 20.28V17.688H14.272L10.216 9.432H13.096L16.36 16.056L19.624 9.432H22.504L18.448 17.688H20.92V20.28H17.656V22.536H20.92V25.128H17.656V28.584H15.064V25.128H11.8V22.536H15.064V20.28H11.8Z" fill="#FB9EA4"/>
<path d="M30.9826 9.144C33.7186 9.144 36.2146 10.608 36.2146 14.136V15.264C36.2146 16.944 35.6386 18.168 34.7506 18.984C35.6386 19.776 36.2146 21 36.2146 22.68V23.808C36.2146 27.336 33.7186 28.824 30.9826 28.824C28.2226 28.824 25.7266 27.336 25.7266 23.808V22.824H28.3186V23.808C28.3186 25.488 29.1826 26.232 30.9826 26.232C32.7826 26.232 33.6226 25.488 33.6226 23.808V22.68C33.6226 21 32.7826 20.28 30.9826 20.28H29.5426V17.688H30.9826C32.7826 17.688 33.6226 16.944 33.6226 15.264V14.136C33.6226 12.456 32.7826 11.736 30.9826 11.736C29.1826 11.736 28.3186 12.456 28.3186 14.136V15.024H25.7266V14.136C25.7266 10.608 28.2226 9.144 30.9826 9.144Z" fill="#FB9EA4"/>
<path d="M43.8638 9.144C46.5998 9.144 49.0958 10.608 49.0958 14.136V23.808C49.0958 27.336 46.5998 28.824 43.8638 28.824C41.1038 28.824 38.6078 27.336 38.6078 23.808V14.136C38.6078 10.608 41.1038 9.144 43.8638 9.144ZM46.5038 23.808V14.136C46.5038 12.456 45.6638 11.736 43.8638 11.736C42.0638 11.736 41.1998 12.456 41.1998 14.136V23.808C41.1998 25.488 42.0638 26.232 43.8638 26.232C45.6638 26.232 46.5038 25.488 46.5038 23.808Z" fill="#FB9EA4"/>
<path d="M56.7451 9.144C59.4811 9.144 61.9771 10.608 61.9771 14.136V23.808C61.9771 27.336 59.4811 28.824 56.7451 28.824C53.9851 28.824 51.4891 27.336 51.4891 23.808V14.136C51.4891 10.608 53.9851 9.144 56.7451 9.144ZM59.3851 23.808V14.136C59.3851 12.456 58.5451 11.736 56.7451 11.736C54.9451 11.736 54.0811 12.456 54.0811 14.136V23.808C54.0811 25.488 54.9451 26.232 56.7451 26.232C58.5451 26.232 59.3851 25.488 59.3851 23.808Z" fill="#FB9EA4"/>
</svg>
