<svg width="74" height="40" viewBox="0 0 74 40" fill="none" xmlns="http://www.w3.org/2000/svg">
<rect width="74" height="40" fill="#615858"/>
<rect x="3" y="3" width="68" height="34" fill="white"/>
<path d="M12.984 21.28V18.688H15.456L11.4 10.432H14.28L17.544 17.056L20.808 10.432H23.688L19.632 18.688H22.104V21.28H18.84V23.536H22.104V26.128H18.84V29.584H16.248V26.128H12.984V23.536H16.248V21.28H12.984ZM34.9659 13.552V22.96H36.5739V25.552H34.9659V29.584H32.3739V25.552H26.0859V22.96L29.3979 10.384H32.0619L28.7739 22.96H32.3739V13.552H34.9659ZM43.7544 10.144C46.4904 10.144 48.9864 11.608 48.9864 15.136V24.808C48.9864 28.336 46.4904 29.824 43.7544 29.824C40.9944 29.824 38.4984 28.336 38.4984 24.808V15.136C38.4984 11.608 40.9944 10.144 43.7544 10.144ZM46.3944 24.808V15.136C46.3944 13.456 45.5544 12.736 43.7544 12.736C41.9544 12.736 41.0904 13.456 41.0904 15.136V24.808C41.0904 26.488 41.9544 27.232 43.7544 27.232C45.5544 27.232 46.3944 26.488 46.3944 24.808ZM56.6357 10.144C59.3717 10.144 61.8677 11.608 61.8677 15.136V24.808C61.8677 28.336 59.3717 29.824 56.6357 29.824C53.8757 29.824 51.3797 28.336 51.3797 24.808V15.136C51.3797 11.608 53.8757 10.144 56.6357 10.144ZM59.2757 24.808V15.136C59.2757 13.456 58.4357 12.736 56.6357 12.736C54.8357 12.736 53.9717 13.456 53.9717 15.136V24.808C53.9717 26.488 54.8357 27.232 56.6357 27.232C58.4357 27.232 59.2757 26.488 59.2757 24.808Z" fill="#B7E9E6"/>
</svg>
