<svg width="74" height="40" viewBox="0 0 74 40" fill="none" xmlns="http://www.w3.org/2000/svg">
<rect width="74" height="40" fill="#615858"/>
<rect x="3" y="3" width="68" height="34" fill="white"/>
<path d="M12.984 21.28V18.688H15.456L11.4 10.432H14.28L17.544 17.056L20.808 10.432H23.688L19.632 18.688H22.104V21.28H18.84V23.536H22.104V26.128H18.84V29.584H16.248V26.128H12.984V23.536H16.248V21.28H12.984ZM31.3419 17.368C34.0779 17.368 36.5739 18.856 36.5739 22.384V24.808C36.5739 28.336 34.0779 29.824 31.3419 29.824C28.5819 29.824 26.0859 28.336 26.0859 24.808H28.6779C28.6779 26.512 29.5419 27.232 31.3419 27.232C33.1419 27.232 33.9819 26.512 33.9819 24.808V22.384C33.9819 20.704 33.1419 19.96 31.3419 19.96C30.4779 19.96 29.4939 20.296 28.8939 21.184H26.3019L26.8779 10.384H35.8299V12.976H29.3259L29.0859 17.8C29.7579 17.536 30.5019 17.368 31.3419 17.368ZM44.2232 10.144C46.9592 10.144 49.4552 11.608 49.4552 15.136V24.808C49.4552 28.336 46.9592 29.824 44.2232 29.824C41.4632 29.824 38.9672 28.336 38.9672 24.808V15.136C38.9672 11.608 41.4632 10.144 44.2232 10.144ZM46.8632 24.808V15.136C46.8632 13.456 46.0232 12.736 44.2232 12.736C42.4232 12.736 41.5592 13.456 41.5592 15.136V24.808C41.5592 26.488 42.4232 27.232 44.2232 27.232C46.0232 27.232 46.8632 26.488 46.8632 24.808ZM57.1044 10.144C59.8404 10.144 62.3364 11.608 62.3364 15.136V24.808C62.3364 28.336 59.8404 29.824 57.1044 29.824C54.3444 29.824 51.8484 28.336 51.8484 24.808V15.136C51.8484 11.608 54.3444 10.144 57.1044 10.144ZM59.7444 24.808V15.136C59.7444 13.456 58.9044 12.736 57.1044 12.736C55.3044 12.736 54.4404 13.456 54.4404 15.136V24.808C54.4404 26.488 55.3044 27.232 57.1044 27.232C58.9044 27.232 59.7444 26.488 59.7444 24.808Z" fill="#E2EBC5"/>
</svg>
