<svg width="59" height="59" viewBox="0 0 59 59" fill="none" xmlns="http://www.w3.org/2000/svg">
<path d="M59 29.5C59 45.7924 45.7924 59 29.5 59C13.2076 59 0 45.7924 0 29.5C0 13.2076 13.2076 0 29.5 0C45.7924 0 59 13.2076 59 29.5Z" fill="#C4C3C3"/>
<path d="M57.23 29.265C57.23 25.6188 56.5118 22.0084 55.1165 18.6398C53.7212 15.2712 51.6761 12.2104 49.0978 9.63218C46.5196 7.05396 43.4588 5.00881 40.0902 3.61348C36.7216 2.21816 33.1112 1.5 29.465 1.5C25.8189 1.5 22.2084 2.21816 18.8398 3.61349C15.4712 5.00881 12.4104 7.05396 9.83219 9.63218C7.25397 12.2104 5.20882 15.2712 3.8135 18.6398C2.41817 22.0084 1.70001 25.6188 1.70001 29.265L57.23 29.265Z" fill="#A6A4A5"/>
<path d="M1.70004 29.765C1.70004 33.4112 2.41821 37.0216 3.81353 40.3902C5.20885 43.7588 7.254 46.8196 9.83222 49.3979C12.4104 51.9761 15.4712 54.0212 18.8398 55.4165C22.2084 56.8119 25.8189 57.53 29.465 57.53C33.1112 57.53 36.7216 56.8119 40.0902 55.4165C43.4589 54.0212 46.5196 51.9761 49.0979 49.3978C51.6761 46.8196 53.7212 43.7588 55.1166 40.3902C56.5119 37.0216 57.23 33.4112 57.23 29.765L1.70004 29.765Z" fill="white"/>
<path d="M15.19 16.69H16.81V17.8H21.025V19.42H18.775V20.515H21.025V26.365C21.025 28.225 20.215 28.99 18.565 28.99V27.37C19.12 27.37 19.405 27.145 19.405 26.365V24.685H18.67C17.11 24.685 16.345 23.755 16.3 22.135H15.67C15.595 23.23 15.22 24.175 13.87 24.835H18.355V28.405H13.645V24.94C13.48 25.015 13.3 25.075 13.105 25.15L12.595 23.995V28.99H10.975V20.515H13.225V19.42H10.975V17.8H15.19V16.69ZM17.155 20.515V19.42H14.845V20.515H17.155ZM12.595 22.135V23.62C13.63 23.29 13.945 22.735 14.035 22.135H12.595ZM19.405 23.065V22.135H17.92C17.95 22.69 18.175 23.065 18.67 23.065H19.405ZM16.735 26.155H15.265V27.085H16.735V26.155ZM34.0721 22.18H24.9221V16.99H34.0721V22.18ZM32.4521 18.61H26.5421V20.56H32.4521V18.61ZM24.4721 22.99H29.1971V28.99H24.4721V22.99ZM34.5221 28.99H29.7971V22.99H34.5221V28.99ZM26.0921 27.37H27.5771V24.61H26.0921V27.37ZM32.9021 24.61H31.4171V27.37H32.9021V24.61ZM34.2291 38.8H24.1791V37.18H34.2291V38.8ZM41.9812 35.875H43.1512V36.805H37.6762V32.005H43.1512V32.92H41.9812V33.415H43.0012V33.85C43.2262 33.445 43.4812 32.755 43.4812 31.69H44.9512C44.9512 31.93 44.9362 32.14 44.9212 32.35H47.7262V33.97H44.5462C44.3062 34.54 44.0662 34.81 44.0662 34.81L43.0012 34.405V35.395H41.9812V35.875ZM40.3612 32.92H39.2962V33.415H40.3612V32.92ZM39.2962 34.57H41.3812V34.24H39.2962V34.57ZM47.7262 36.805H44.0512V35.185H47.7262V36.805ZM39.2962 35.875H40.3612V35.395H39.2962V35.875ZM43.6762 42.37H41.3962C40.3762 43.99 38.0512 43.99 38.0512 43.99L37.6762 42.865C37.6762 42.865 38.6812 42.76 39.4012 42.37H38.1262V37.255H47.2762V42.37H45.3262C45.4462 42.85 45.7762 42.97 46.4512 42.97H47.7262V43.99H46.4512C44.6812 43.99 43.8412 43.87 43.6762 42.37ZM45.6562 38.425H39.7462V38.725H45.6562V38.425ZM45.6562 39.655H39.7462V39.97H45.6562V39.655ZM45.6562 40.9H39.7462V41.2H45.6562V40.9Z" fill="#615858"/>
</svg>
