<svg width="59" height="59" viewBox="0 0 59 59" fill="none" xmlns="http://www.w3.org/2000/svg">
<path d="M59 29.5C59 45.7924 45.7924 59 29.5 59C13.2076 59 0 45.7924 0 29.5C0 13.2076 13.2076 0 29.5 0C45.7924 0 59 13.2076 59 29.5Z" fill="#C4C3C3"/>
<path d="M57.23 29.265C57.23 25.6188 56.5118 22.0084 55.1165 18.6398C53.7212 15.2712 51.6761 12.2104 49.0978 9.63218C46.5196 7.05396 43.4588 5.00881 40.0902 3.61348C36.7216 2.21816 33.1112 1.5 29.465 1.5C25.8189 1.5 22.2084 2.21816 18.8398 3.61349C15.4712 5.00881 12.4104 7.05396 9.83219 9.63218C7.25397 12.2104 5.20882 15.2712 3.8135 18.6398C2.41817 22.0084 1.70001 25.6188 1.70001 29.265L57.23 29.265Z" fill="#A6A4A5"/>
<path d="M1.70004 29.765C1.70004 33.4112 2.41821 37.0216 3.81353 40.3902C5.20885 43.7588 7.254 46.8196 9.83222 49.3979C12.4104 51.9761 15.4712 54.0212 18.8398 55.4165C22.2084 56.8119 25.8189 57.53 29.465 57.53C33.1112 57.53 36.7216 56.8119 40.0902 55.4165C43.4589 54.0212 46.5196 51.9761 49.0979 49.3978C51.6761 46.8196 53.7212 43.7588 55.1166 40.3902C56.5119 37.0216 57.23 33.4112 57.23 29.765L1.70004 29.765Z" fill="white"/>
<path d="M14.94 18.01H14.01V16.09H14.94V18.01ZM16.305 18.01H15.375V16.09H16.305V18.01ZM11.625 17.8V18.61H15.375V25.315C15.375 28.12 14.565 28.99 12.045 28.99V27.37C13.5 27.37 13.755 26.89 13.755 25.645V20.23H11.625V22.12C11.625 25.315 10.98 27.235 9.63 28.99L8.325 28.045C9.48 26.38 10.005 24.955 10.005 22.12V20.23H8.46V18.61H10.005V17.8H11.625ZM24.7391 20.215V22.18H27.1241V23.8H24.7241C24.5591 26.815 23.4641 28.03 21.6641 28.99L20.9891 27.52C22.5041 26.725 23.0141 25.825 23.1041 23.8H20.2991V22.18H23.1191V20.68C22.5191 20.785 21.8741 20.83 21.1391 20.83L20.9891 19.21C22.8641 19.135 24.3041 18.835 25.5491 17.8L26.4341 19.15C25.8941 19.615 25.3391 19.96 24.7391 20.215ZM33.4582 19.42H35.0782L35.1832 20.83L38.9932 20.23L37.7482 24.205L36.2032 23.71L36.6682 22.21L35.2882 22.435L35.7232 28.99H34.1032L33.6832 22.69L32.1082 22.945L31.8982 21.34L33.5632 21.07L33.4582 19.42ZM33.0982 35.05V33.88H34.9132V33.16H33.0982V31.99H36.5332V35.05H34.7182C34.7182 35.365 34.7782 35.77 35.2432 35.77H36.5332V36.94H35.2432C33.6082 36.94 33.0982 36.175 33.0982 35.05ZM38.8132 33.16H36.9832V31.99H40.4332V35.05H38.6032C38.6032 35.365 38.6782 35.77 39.1432 35.77H40.4332V36.94H39.1432C37.4932 36.94 36.9832 36.175 36.9832 35.05V33.88H38.8132V33.16ZM30.3832 33.655H32.0482L32.4082 35.995H30.7432L30.3832 33.655ZM37.9132 37.24H39.5332V37.69H40.4332V38.86H39.5332V39.385H40.4332V40.705H39.3982C39.6682 40.9 39.9982 41.035 40.4332 41.125L40.0732 42.37H40.4332V43.99H36.6682C34.6282 43.99 33.4882 43.63 32.3782 42.865C32.2732 43.24 32.1382 43.615 31.9582 43.99L30.3832 43.585C31.0132 42.13 31.0282 40.705 31.0282 38.845H30.3832V37.21H32.6482V38.845C32.6482 39.64 32.6482 40.345 32.6332 40.99C32.9032 41.2 33.1582 41.38 33.4132 41.545L33.2932 41.125C33.7132 41.035 34.0582 40.9 34.3282 40.705H33.2482V39.385H34.1482V38.86H33.2482V37.69H34.1482V37.24H35.7682V37.69H37.9132V37.24ZM37.9132 38.86H35.7682V39.385H37.9132V38.86ZM36.6682 42.37H39.9982C38.7532 42.145 38.1682 41.545 37.7632 40.705H35.9632C35.6632 41.32 35.2732 41.8 34.5982 42.1C35.1532 42.28 35.8132 42.37 36.6682 42.37ZM47.1203 43.99L45.5753 43.495C46.3103 40.285 46.1903 36.73 46.1903 31.99H52.4303V38.8H51.3203C51.5603 41.665 52.4303 43.285 52.4303 43.285L50.9753 43.99C50.9753 43.99 49.9253 42.235 49.6853 38.8H47.7503C47.6603 40.75 47.4953 42.49 47.1203 43.99ZM43.5203 41.35V40.375C43.1753 40.405 42.8003 40.435 42.3803 40.435V38.815C42.7853 38.815 43.1603 38.785 43.5203 38.725V35.23H42.3803V33.61H43.5203V32.5H45.1403V33.61H45.7403V35.23H45.1403V38.32C45.5153 38.185 45.7403 38.08 45.7403 38.08V39.7C45.7403 39.7 45.5453 39.835 45.1403 40V41.35C45.1403 43.225 44.3303 43.99 42.6803 43.99V42.37C43.2353 42.37 43.5203 42.145 43.5203 41.35ZM50.8103 33.61H47.8103C47.8103 34.855 47.8103 36.055 47.7953 37.18H50.8103V33.61Z" fill="#615858"/>
</svg>
