<?xml version="1.0" encoding="UTF-8"?>
<svg id="_レイヤー_1" data-name="レイヤー_1" xmlns="http://www.w3.org/2000/svg" version="1.1" viewBox="0 0 88 116">
  <!-- Generator: Adobe Illustrator 29.6.1, SVG Export Plug-In . SVG Version: 2.1.1 Build 9)  -->
  <defs>
    <style>
      .st0 {
        fill: #fff;
      }

      .st1 {
        fill: none;
        stroke: #c4c3c3;
        stroke-width: 2px;
      }

      .st2 {
        fill: #ffeaa0;
      }
    </style>
  </defs>
  <path class="st0" d="M4.99,62.05c-1.44,5.39-1.81,11.01-1.08,16.55.73,5.53,2.54,10.87,5.33,15.7,2.79,4.83,6.51,9.07,10.94,12.47,4.43,3.4,9.48,5.89,14.87,7.33s11.01,1.81,16.55,1.08c5.53-.73,10.87-2.54,15.7-5.33s9.07-6.51,12.47-10.94c3.4-4.43,5.89-9.48,7.33-14.87L4.99,62.05Z"/>
  <path class="st2" d="M81.01,23.64c-2.59-4.94-6.13-9.33-10.42-12.9-4.29-3.57-9.24-6.27-14.56-7.93-5.33-1.66-10.93-2.26-16.49-1.75-5.56.5-10.96,2.1-15.91,4.69s-9.33,6.13-12.9,10.42c-3.57,4.29-6.27,9.24-7.93,14.56s-2.26,10.93-1.75,16.49c.5,5.56,2.1,10.96,4.69,15.91L81.01,23.64Z"/>
  <path class="st1" d="M85.86,84.75c-1.44,4.9-3.77,9.5-6.89,13.56-3.32,4.32-7.45,7.95-12.17,10.68-4.72,2.73-9.93,4.5-15.33,5.21-5.4.71-10.89.35-16.16-1.06-5.26-1.41-10.2-3.84-14.52-7.16-4.32-3.32-7.95-7.45-10.68-12.17-2.73-4.72-4.49-9.93-5.21-15.33-.62-4.69-.43-9.45.56-14.07l.75-.39.75-.39,78.91,21.13ZM39.63,2.05c5.43-.49,10.9.09,16.1,1.71,5.2,1.62,10.03,4.25,14.22,7.74,3.93,3.28,7.22,7.25,9.7,11.72L6.72,61.48l-.78-.21c-2.12-4.44-3.44-9.23-3.89-14.14-.49-5.43.09-10.9,1.71-16.1,1.62-5.2,4.25-10.03,7.74-14.22,3.49-4.19,7.77-7.64,12.6-10.18,4.83-2.53,10.1-4.09,15.53-4.58Z"/>
</svg>