<svg width="88" height="116" viewBox="0 0 88 116" fill="none" xmlns="http://www.w3.org/2000/svg">
<path d="M4.99488 62.0533C3.551 67.4444 3.18314 73.0672 3.91229 78.6006C4.64144 84.1339 6.45332 89.4694 9.24448 94.3026C12.0357 99.1357 15.7514 103.372 20.1797 106.769C24.6079 110.166 29.6619 112.657 35.0531 114.101C40.4443 115.545 46.0671 115.913 51.6004 115.184C57.1338 114.455 62.4693 112.643 67.3024 109.852C72.1355 107.061 76.3716 103.345 79.7686 98.9165C83.1657 94.4883 85.6573 89.4343 87.1012 84.0431L4.99488 62.0533Z" fill="white"/>
<path d="M81.0148 23.6361C78.4222 18.6937 74.8814 14.3103 70.5947 10.7363C66.308 7.16221 61.3593 4.46748 56.0312 2.80594C50.7031 1.1444 45.0999 0.548577 39.5415 1.05249C33.9831 1.55641 28.5784 3.1502 23.636 5.74286C18.6936 8.33552 14.3102 11.8763 10.7361 16.163C7.16208 20.4497 4.46736 25.3984 2.80582 30.7265C1.14428 36.0546 0.548455 41.6578 1.05237 47.2162C1.55629 52.7746 3.15008 58.1793 5.74274 63.1217L81.0148 23.6361Z" fill="#FB9EA4"/>
<path d="M85.8641 84.7461C84.4235 89.6496 82.0897 94.248 78.9755 98.3076C75.6584 102.632 71.5218 106.26 66.8026 108.985C62.0832 111.711 56.8728 113.48 51.4696 114.192C46.0665 114.904 40.5757 114.546 35.3114 113.136C30.0472 111.726 25.1119 109.293 20.788 105.976C16.464 102.658 12.8357 98.522 10.1102 93.8027C7.38474 89.0833 5.61617 83.8729 4.90417 78.4697C4.28577 73.7767 4.47539 69.0178 5.45984 64.3984L6.20691 64.0068L6.95496 63.6133L85.8641 84.7461ZM39.6317 2.04883C45.0592 1.55677 50.5306 2.13834 55.7333 3.76074C60.9359 5.38314 65.7682 8.01413 69.954 11.5039C73.8835 14.7802 77.1708 18.7537 79.6532 23.2207L6.7196 61.4795L5.93542 61.2695C3.81255 56.8266 2.49405 52.0382 2.04871 47.126C1.55665 41.6984 2.13822 36.2271 3.76062 31.0244C5.38301 25.8218 8.014 20.9894 11.5038 16.8037C14.9937 12.6179 19.2743 9.15959 24.1005 6.62793C28.9265 4.09634 34.2042 2.5409 39.6317 2.04883Z" stroke="#C4C3C3" stroke-width="2"/>
</svg>
