<?xml version="1.0" encoding="UTF-8"?>
<svg id="_レイヤー_1" data-name="レイヤー_1" xmlns="http://www.w3.org/2000/svg" xmlns:xlink="http://www.w3.org/1999/xlink" version="1.1" viewBox="0 0 87.99 115.99">
  <!-- Generator: Adobe Illustrator 29.6.1, SVG Export Plug-In . SVG Version: 2.1.1 Build 9)  -->
  <defs>
    <style>
      .st0, .st1 {
        stroke: #c4c3c3;
        stroke-width: 4px;
      }

      .st0, .st2 {
        fill: #fff;
      }

      .st3 {
        mask: url(#mask);
      }

      .st1 {
        fill: #b7e9e6;
      }

      .st4 {
        mask: url(#mask-1);
      }
    </style>
    <mask id="mask" x="-.63" y="1.88" width="84.84" height="66.94" maskUnits="userSpaceOnUse">
      <g id="path-1-inside-1_1143_96">
        <path class="st2" d="M81.51,26.63c-2.59-4.94-6.13-9.33-10.42-12.9-4.29-3.57-9.24-6.27-14.56-7.93-5.33-1.66-10.93-2.26-16.49-1.75-5.56.5-10.96,2.1-15.91,4.69-4.94,2.59-9.33,6.13-12.9,10.42-3.57,4.29-6.27,9.24-7.93,14.56-1.66,5.33-2.26,10.93-1.75,16.49.5,5.56,2.1,10.96,4.69,15.91l37.64-19.74,37.64-19.74Z"/>
      </g>
    </mask>
    <mask id="mask-1" x="2.04" y="60.6" width="88" height="57.94" maskUnits="userSpaceOnUse">
      <g id="path-2-inside-2_1143_96">
        <path class="st2" d="M5.49,63.05c-1.44,5.39-1.81,11.01-1.08,16.55.73,5.53,2.54,10.87,5.33,15.7,2.79,4.83,6.51,9.07,10.94,12.47,4.43,3.4,9.48,5.89,14.87,7.33,5.39,1.44,11.01,1.81,16.55,1.08,5.53-.73,10.87-2.54,15.7-5.33,4.83-2.79,9.07-6.51,12.47-10.94,3.4-4.43,5.89-9.48,7.33-14.87l-41.05-10.99L5.49,63.05Z"/>
      </g>
    </mask>
  </defs>
  <g class="st3">
    <path class="st1" d="M81.51,26.63c-2.59-4.94-6.13-9.33-10.42-12.9-4.29-3.57-9.24-6.27-14.56-7.93-5.33-1.66-10.93-2.26-16.49-1.75-5.56.5-10.96,2.1-15.91,4.69-4.94,2.59-9.33,6.13-12.9,10.42-3.57,4.29-6.27,9.24-7.93,14.56-1.66,5.33-2.26,10.93-1.75,16.49.5,5.56,2.1,10.96,4.69,15.91l37.64-19.74,37.64-19.74Z"/>
  </g>
  <g class="st4">
    <path class="st0" d="M5.49,63.05c-1.44,5.39-1.81,11.01-1.08,16.55.73,5.53,2.54,10.87,5.33,15.7,2.79,4.83,6.51,9.07,10.94,12.47,4.43,3.4,9.48,5.89,14.87,7.33,5.39,1.44,11.01,1.81,16.55,1.08,5.53-.73,10.87-2.54,15.7-5.33,4.83-2.79,9.07-6.51,12.47-10.94,3.4-4.43,5.89-9.48,7.33-14.87l-41.05-10.99L5.49,63.05Z"/>
  </g>
</svg>