<svg width="59" height="59" viewBox="0 0 59 59" fill="none" xmlns="http://www.w3.org/2000/svg">
<path d="M59 29.5C59 45.7924 45.7924 59 29.5 59C13.2076 59 0 45.7924 0 29.5C0 13.2076 13.2076 0 29.5 0C45.7924 0 59 13.2076 59 29.5Z" fill="#C4C3C3"/>
<path d="M57.23 29.265C57.23 25.6188 56.5118 22.0084 55.1165 18.6398C53.7212 15.2712 51.6761 12.2104 49.0978 9.63218C46.5196 7.05396 43.4588 5.00881 40.0902 3.61348C36.7216 2.21816 33.1112 1.5 29.465 1.5C25.8189 1.5 22.2084 2.21816 18.8398 3.61349C15.4712 5.00881 12.4104 7.05396 9.83219 9.63218C7.25397 12.2104 5.20882 15.2712 3.8135 18.6398C2.41817 22.0084 1.70001 25.6188 1.70001 29.265L57.23 29.265Z" fill="#E2EBC5"/>
<path d="M1.70004 29.765C1.70004 33.4112 2.41821 37.0216 3.81353 40.3902C5.20885 43.7588 7.254 46.8196 9.83222 49.3979C12.4104 51.9761 15.4712 54.0212 18.8398 55.4165C22.2084 56.8119 25.8189 57.53 29.465 57.53C33.1112 57.53 36.7216 56.8119 40.0902 55.4165C43.4589 54.0212 46.5196 51.9761 49.0979 49.3978C51.6761 46.8196 53.7212 43.7588 55.1166 40.3902C56.5119 37.0216 57.23 33.4112 57.23 29.765L1.70004 29.765Z" fill="white"/>
<path d="M16.09 26.735L16.465 25.16L21.625 26.375L21.25 27.95L16.09 26.735ZM21.04 31.835L16.3 30.725L16.675 29.135L21.415 30.26L21.04 31.835ZM21.985 35.99L15.355 34.43L15.73 32.855L22.36 34.415L21.985 35.99ZM27.9141 27.23V25.61H33.2091V27.23H27.9141ZM33.9741 35.315H27.1491V33.695H33.9741V35.315ZM44.7603 35.99H43.1403V25.61H42.2553V23.99H44.7603V35.99Z" fill="#615858"/>
</svg>
