<svg width="59" height="59" viewBox="0 0 59 59" fill="none" xmlns="http://www.w3.org/2000/svg">
<path d="M59 29.5C59 45.7924 45.7924 59 29.5 59C13.2076 59 0 45.7924 0 29.5C0 13.2076 13.2076 0 29.5 0C45.7924 0 59 13.2076 59 29.5Z" fill="#C4C3C3"/>
<path d="M57.23 29.265C57.23 25.6188 56.5118 22.0084 55.1165 18.6398C53.7212 15.2712 51.6761 12.2104 49.0978 9.63218C46.5196 7.05396 43.4588 5.00881 40.0902 3.61348C36.7216 2.21816 33.1112 1.5 29.465 1.5C25.8189 1.5 22.2084 2.21816 18.8398 3.61349C15.4712 5.00881 12.4104 7.05396 9.83219 9.63218C7.25397 12.2104 5.20882 15.2712 3.8135 18.6398C2.41817 22.0084 1.70001 25.6188 1.70001 29.265L57.23 29.265Z" fill="#FFEAA0"/>
<path d="M1.70004 29.765C1.70004 33.4112 2.41821 37.0216 3.81353 40.3902C5.20885 43.7588 7.254 46.8196 9.83222 49.3979C12.4104 51.9761 15.4712 54.0212 18.8398 55.4165C22.2084 56.8119 25.8189 57.53 29.465 57.53C33.1112 57.53 36.7216 56.8119 40.0902 55.4165C43.4589 54.0212 46.5196 51.9761 49.0979 49.3978C51.6761 46.8196 53.7212 43.7588 55.1166 40.3902C56.5119 37.0216 57.23 33.4112 57.23 29.765L1.70004 29.765Z" fill="white"/>
<path d="M23.16 23.69H24.63V27.59H26.025V29.21H24.735C24.855 30.05 25.275 30.725 26.025 31.19V33.41C25.425 33.14 24.96 32.735 24.63 32.24V33.92H23.16V32.24C22.845 32.705 22.41 33.11 21.84 33.38C22.785 34.04 23.67 34.37 25.35 34.37H26.025V35.99H25.35C23.385 35.99 22.245 35.66 21.18 34.955C21.075 35.3 20.955 35.645 20.775 35.99L19.35 35.585C19.98 34.13 19.995 32.705 19.995 30.845H19.35V29.21H21.465V30.845C21.465 31.685 21.48 32.42 21.45 33.095C21.555 33.185 21.66 33.26 21.765 33.335V31.19C22.515 30.725 22.95 30.05 23.07 29.21H21.765V27.59H23.16V23.69ZM18.75 23.99V25.16H16.425V23.99H18.75ZM21.765 24.44H22.68L22.965 27.14H22.05L21.765 24.44ZM25.74 27.14H24.825L25.125 24.44H26.025L25.74 27.14ZM21.24 27.995H19.725L19.35 25.655H20.865L21.24 27.995ZM15.975 25.745H19.05V27.365H15.975V25.745ZM16.425 27.965H18.75V29.135H16.425V27.965ZM18.75 30.935H16.425V29.765H18.75V30.935ZM15.975 31.58H19.2V35.99H15.975V31.58ZM17.31 34.37H17.88V33.2H17.31V34.37ZM38.1541 35.99H36.5341V25.61H35.6491V23.99H38.1541V35.99Z" fill="#615858"/>
</svg>
