<svg width="59" height="59" viewBox="0 0 59 59" fill="none" xmlns="http://www.w3.org/2000/svg">
<path d="M59 29.5C59 45.7924 45.7924 59 29.5 59C13.2076 59 0 45.7924 0 29.5C0 13.2076 13.2076 0 29.5 0C45.7924 0 59 13.2076 59 29.5Z" fill="#C4C3C3"/>
<path d="M57.23 29.265C57.23 25.6188 56.5118 22.0084 55.1165 18.6398C53.7212 15.2712 51.6761 12.2104 49.0978 9.63218C46.5196 7.05396 43.4588 5.00881 40.0902 3.61348C36.7216 2.21816 33.1112 1.5 29.465 1.5C25.8189 1.5 22.2084 2.21816 18.8398 3.61349C15.4712 5.00881 12.4104 7.05396 9.83219 9.63218C7.25397 12.2104 5.20882 15.2712 3.8135 18.6398C2.41817 22.0084 1.70001 25.6188 1.70001 29.265L57.23 29.265Z" fill="#B7E9E6"/>
<path d="M1.70004 29.765C1.70004 33.4112 2.41821 37.0216 3.81353 40.3902C5.20885 43.7588 7.254 46.8196 9.83222 49.3979C12.4104 51.9761 15.4712 54.0212 18.8398 55.4165C22.2084 56.8119 25.8189 57.53 29.465 57.53C33.1112 57.53 36.7216 56.8119 40.0902 55.4165C43.4589 54.0212 46.5196 51.9761 49.0979 49.3978C51.6761 46.8196 53.7212 43.7588 55.1166 40.3902C56.5119 37.0216 57.23 33.4112 57.23 29.765L1.70004 29.765Z" fill="white"/>
<path d="M18 33.695V35.315C17.325 35.645 15.48 35.99 12.975 35.99V34.37C13.545 34.37 14.115 34.34 14.67 34.295V33.5H13.425V32.3H14.67V31.82H12.975V27.95H14.67V27.41H12.975V26.21H14.67V25.67C14.145 25.67 13.575 25.685 12.975 25.685V24.05C14.85 24.05 16.62 24.11 18 23.69V25.31C17.67 25.475 17.085 25.565 16.29 25.61V26.21H17.985V27.41H16.29V27.95H18V31.82H16.29V32.3H17.55V33.5H16.29V34.085C16.905 33.98 17.475 33.845 18 33.695ZM18.93 23.69H20.565C20.565 24.08 20.55 24.44 20.55 24.8H23.025V33.365C23.025 35.225 22.215 35.99 20.715 35.99V34.37C21.12 34.37 21.405 34.145 21.405 33.365V26.42H20.55C20.505 32.12 20.31 33.335 19.575 35.99L17.985 35.69C18.675 33.26 18.885 31.865 18.93 26.42H18.3V24.8H18.93V23.69ZM14.31 29.42H15V29.045H14.31V29.42ZM16.65 29.045H15.96V29.42H16.65V29.045ZM14.31 30.725H15V30.35H14.31V30.725ZM16.65 30.35H15.96V30.725H16.65V30.35ZM27.3871 30.395L30.7321 24.8L32.1121 25.625L29.2771 30.395L32.1121 35.15L30.7321 35.99L27.3871 30.395ZM42.3612 35.99H40.7412V25.61H39.8562V23.99H42.3612V35.99Z" fill="#615858"/>
</svg>
