<svg width="59" height="59" viewBox="0 0 59 59" fill="none" xmlns="http://www.w3.org/2000/svg">
<path d="M59 29.5C59 45.7924 45.7924 59 29.5 59C13.2076 59 0 45.7924 0 29.5C0 13.2076 13.2076 0 29.5 0C45.7924 0 59 13.2076 59 29.5Z" fill="#C4C3C3"/>
<path d="M57.23 29.265C57.23 25.6188 56.5118 22.0084 55.1165 18.6398C53.7212 15.2712 51.6761 12.2104 49.0978 9.63218C46.5196 7.05396 43.4588 5.00881 40.0902 3.61348C36.7216 2.21816 33.1112 1.5 29.465 1.5C25.8189 1.5 22.2084 2.21816 18.8398 3.61349C15.4712 5.00881 12.4104 7.05396 9.83219 9.63218C7.25397 12.2104 5.20882 15.2712 3.8135 18.6398C2.41817 22.0084 1.70001 25.6188 1.70001 29.265L57.23 29.265Z" fill="#FB9EA4"/>
<path d="M1.70004 29.765C1.70004 33.4112 2.41821 37.0216 3.81353 40.3902C5.20885 43.7588 7.254 46.8196 9.83222 49.3979C12.4104 51.9761 15.4712 54.0212 18.8398 55.4165C22.2084 56.8119 25.8189 57.53 29.465 57.53C33.1112 57.53 36.7216 56.8119 40.0902 55.4165C43.4589 54.0212 46.5196 51.9761 49.0979 49.3978C51.6761 46.8196 53.7212 43.7588 55.1166 40.3902C56.5119 37.0216 57.23 33.4112 57.23 29.765L1.70004 29.765Z" fill="white"/>
<path d="M15.42 23.69H17.04C17.04 24.08 17.025 24.455 16.995 24.815H23.025V26.435H16.725L16.455 27.335H23.025V33.365C23.025 35.225 22.215 35.99 20.565 35.99H19.65V34.37H20.565C21.12 34.37 21.405 34.145 21.405 33.365H16.17V35.99H14.55V30.635C14.145 31.085 13.86 31.295 13.86 31.295L12.96 29.945C12.96 29.945 14.325 28.73 15.015 26.435H12.99V24.815H15.36C15.405 24.455 15.42 24.08 15.42 23.69ZM21.405 29.915V28.955H16.17V29.915H21.405ZM16.17 32.12H21.405V31.16H16.17V32.12ZM34.5721 23.99V25.61C33.7321 27.215 32.6221 28.37 31.3621 29.18H35.0221V35.99H26.7721V30.71C26.2471 30.77 25.7221 30.8 25.1971 30.8L24.9721 29.18C26.5321 29.18 28.0471 28.925 29.4121 28.31L28.7221 27.395L30.0121 26.42L30.8221 27.5C31.4971 26.99 32.1271 26.375 32.6821 25.61H30.2671C28.9321 26.81 27.1021 27.215 25.7971 27.215L25.5571 25.61C27.2221 25.535 28.5571 25.085 29.5921 23.99H34.5721ZM33.4021 34.37V30.8H28.3921V34.37H33.4021ZM42.6541 35.99H41.0341V25.61H40.1491V23.99H42.6541V35.99Z" fill="#615858"/>
</svg>
