<?xml version="1.0" encoding="UTF-8"?>
<svg id="_レイヤー_1" data-name="レイヤー_1" xmlns="http://www.w3.org/2000/svg" version="1.1" viewBox="0 0 127.56 127.56">
  <!-- Generator: Adobe Illustrator 29.6.1, SVG Export Plug-In . SVG Version: 2.1.1 Build 9)  -->
  <defs>
    <style>
      .st0 {
        fill: #fff6ed;
      }
    </style>
  </defs>
  <path class="st0" d="M60.22,22.26c1.48-2.91,5.64-2.91,7.13,0l11.4,22.34c.58,1.14,1.67,1.93,2.93,2.13l24.77,3.94c3.23.51,4.51,4.47,2.2,6.78l-17.72,17.74c-.9.9-1.32,2.19-1.12,3.45l3.91,24.77c.51,3.23-2.85,5.67-5.76,4.19l-22.35-11.37c-1.14-.58-2.49-.58-3.63,0l-22.35,11.37c-2.91,1.48-6.27-.96-5.76-4.19l3.91-24.77c.2-1.26-.22-2.55-1.12-3.45l-17.72-17.74c-2.31-2.31-1.02-6.26,2.2-6.78l24.77-3.94c1.26-.2,2.35-.99,2.93-2.13l11.4-22.34Z"/>
</svg>